<svg width="168" height="40" viewBox="0 0 168 40" fill="none" xmlns="http://www.w3.org/2000/svg">
<g clip-path="url(#clip0_1_779)">
<path d="M27.3611 29.1779H23.7816L20.9597 21.6757H6.3968L3.57495 29.1779H0L11.1558 0H16.2052L27.3611 29.1779ZM13.2609 3.54447L7.57636 18.549H19.7847L14.1002 3.54447H13.2564H13.2609Z" fill="#F5F4EF"/>
<path d="M41.5883 37.5112V26.2578H41.3796C40.5086 27.3405 39.5286 28.1761 38.4353 28.7601C37.3419 29.3171 36.0762 29.5957 34.6471 29.5957C32.8233 29.5957 31.1674 29.1374 29.6794 28.221C28.2185 27.3046 27.0707 26.0242 26.2269 24.3845C25.3831 22.7448 24.9657 20.8715 24.9657 18.7556C24.9657 16.6397 25.3876 14.7664 26.2269 13.1267C27.0707 11.487 28.2185 10.2111 29.6794 9.29019C31.1674 8.37375 32.8233 7.91553 34.6471 7.91553C36.0762 7.91553 37.3419 8.20753 38.4353 8.79154C39.5286 9.34859 40.5131 10.1662 41.3796 11.2489H41.5883L42.0102 8.33332H44.7459V37.5112H41.5883ZM34.8558 26.6756C36.0626 26.6756 37.1695 26.3432 38.1812 25.6738C39.2201 25.009 40.0458 24.0746 40.6628 22.8796C41.2798 21.6846 41.5883 20.31 41.5883 18.7511C41.5883 17.1923 41.2798 15.8176 40.6628 14.6226C40.0458 13.4277 39.2156 12.4977 38.1812 11.8284C37.1695 11.1635 36.0626 10.8266 34.8558 10.8266C33.649 10.8266 32.5284 11.159 31.4895 11.8284C30.4778 12.4932 29.6658 13.4277 29.0488 14.6226C28.4318 15.8176 28.1233 17.1923 28.1233 18.7511C28.1233 20.31 28.4318 21.6846 29.0488 22.8796C29.6658 24.0746 30.4778 25.0045 31.4895 25.6738C32.5284 26.3387 33.649 26.6756 34.8558 26.6756Z" fill="#F5F4EF"/>
<path d="M54.9717 29.5913C53.3702 29.5913 51.9275 29.2319 50.6346 28.5086C49.3734 27.7584 48.3753 26.7161 47.6449 25.3819C46.9145 24.0477 46.5515 22.5338 46.5515 20.8401V8.33789H49.7091V20.8401C49.7091 21.9228 49.9631 22.9111 50.4667 23.8006C50.9703 24.6901 51.6599 25.3999 52.5309 25.9255C53.402 26.4241 54.3547 26.6757 55.3936 26.6757C56.487 26.6757 57.4987 26.4107 58.4242 25.8851C59.3769 25.328 60.1209 24.6047 60.6562 23.7197C61.2188 22.8303 61.5001 21.8734 61.5001 20.8446V8.34238H64.6576V29.1825H61.922L61.5001 26.8913H61.2914C60.7016 27.6146 59.8442 28.2525 58.7236 28.8096C57.6302 29.3397 56.3826 29.6002 54.9762 29.6002L54.9717 29.5913Z" fill="#F5F4EF"/>
<path d="M72.987 29.5911C70.8003 29.5911 69.0174 28.9936 67.6428 27.7986C66.2953 26.5767 65.6239 25.0179 65.6239 23.1311C65.6239 21.0466 66.3135 19.4204 67.6881 18.2524C69.09 17.0574 71.2086 16.4599 74.0441 16.4599H79.7286V15.8355C79.7286 14.2811 79.2795 13.0547 78.3812 12.1697C77.4829 11.2802 76.2489 10.8355 74.6792 10.8355C73.1095 10.8355 71.93 11.1814 70.9773 11.8777C70.0518 12.5426 69.53 13.3781 69.4212 14.3799H66.2636C66.3498 13.2389 66.7263 12.1832 67.4023 11.2128C68.0737 10.211 69.031 9.42037 70.265 8.83636C71.5262 8.2254 73.0006 7.91992 74.6838 7.91992C77.238 7.91992 79.2432 8.62972 80.704 10.0448C82.1649 11.433 82.8907 13.3647 82.8907 15.84V29.1778H80.1551L79.7332 26.6755H79.5245C79.0481 27.4258 78.2179 28.1086 77.0429 28.7196C75.8905 29.3036 74.5477 29.5956 73.0006 29.5956L72.987 29.5911ZM72.987 26.6755C75.0921 26.6755 76.7344 26.105 77.9139 24.9684C79.1207 23.8004 79.7241 22.2191 79.7241 20.2155V19.3799H74.0396C72.243 19.3799 70.9092 19.7259 70.0427 20.4222C69.1989 21.1185 68.7815 22.0215 68.7815 23.1311C68.7815 24.2407 69.1444 25.0493 69.8748 25.7142C70.6052 26.3521 71.6442 26.671 72.9916 26.671L72.987 26.6755Z" fill="#F5F4EF"/>
<path d="M90.2902 29.2004H85.8715V0.0224609H104.853V4.06559H90.2902V12.6101H103.928V16.5678H90.2902V29.1959V29.2004Z" fill="#EE6C4D"/>
<path d="M115.102 29.6136C113.137 29.6136 111.354 29.1554 109.757 28.2389C108.156 27.2955 106.895 26.0017 105.969 24.362C105.071 22.6954 104.622 20.8041 104.622 18.6927C104.622 16.5813 105.071 14.7484 105.969 13.1087C106.895 11.442 108.156 10.1482 109.757 9.23174C111.359 8.28835 113.137 7.81665 115.102 7.81665C117.066 7.81665 118.681 8.26139 120.196 9.15088C121.739 10.0404 122.946 11.2623 123.817 12.8167C124.715 14.371 125.164 16.123 125.164 18.0682C125.164 19.0386 125.096 19.7753 124.955 20.2785H108.791C108.986 21.9721 109.676 23.3647 110.855 24.4474C112.035 25.5031 113.45 26.0332 115.106 26.0332C116.286 26.0332 117.325 25.7681 118.223 25.2425C119.121 24.7124 119.793 24.0341 120.242 23.1985H124.579C123.935 25.0583 122.796 26.6037 121.167 27.8256C119.539 29.0206 117.52 29.6181 115.106 29.6181L115.102 29.6136ZM121.036 17.1114C120.895 15.4447 120.278 14.07 119.185 12.9829C118.091 11.9002 116.73 11.3566 115.102 11.3566C113.473 11.3566 112.003 11.9002 110.851 12.9829C109.698 14.0655 109.013 15.4402 108.787 17.1114H121.036Z" fill="#EE6C4D"/>
<path d="M136.501 29.6136C134.537 29.6136 132.754 29.1554 131.157 28.2389C129.556 27.2955 128.295 26.0017 127.369 24.362C126.471 22.6954 126.022 20.8041 126.022 18.6927C126.022 16.5813 126.471 14.7484 127.369 13.1087C128.295 11.442 129.556 10.1482 131.157 9.23174C132.759 8.28835 134.537 7.81665 136.501 7.81665C138.466 7.81665 140.081 8.26139 141.596 9.15088C143.139 10.0404 144.345 11.2623 145.217 12.8167C146.115 14.371 146.564 16.123 146.564 18.0682C146.564 19.0386 146.496 19.7753 146.355 20.2785H130.191C130.386 21.9721 131.076 23.3647 132.255 24.4474C133.435 25.5031 134.85 26.0332 136.506 26.0332C137.686 26.0332 138.724 25.7681 139.623 25.2425C140.521 24.7124 141.192 24.0341 141.642 23.1985H145.979C145.335 25.0583 144.196 26.6037 142.567 27.8256C140.938 29.0206 138.92 29.6181 136.506 29.6181L136.501 29.6136ZM142.436 17.1114C142.295 15.4447 141.678 14.07 140.585 12.9829C139.491 11.8957 138.13 11.3566 136.501 11.3566C134.873 11.3566 133.403 11.9002 132.251 12.9829C131.098 14.0655 130.413 15.4402 130.186 17.1114H142.436Z" fill="#EE6C4D"/>
<path d="M157.225 29.6137C155.402 29.6137 153.746 29.1554 152.258 28.239C150.77 27.3226 149.59 26.0288 148.723 24.3621C147.857 22.6954 147.417 20.8041 147.417 18.6927C147.417 16.5813 147.852 14.7035 148.723 13.0638C149.595 11.3971 150.774 10.1033 152.258 9.18688C153.746 8.27044 155.402 7.81222 157.225 7.81222C159.893 7.81222 162.025 8.81402 163.622 10.8131H163.831V0.0224609H168V29.2004H164.421L163.999 26.5319H163.79C162.161 28.5894 159.975 29.6181 157.225 29.6181V29.6137ZM157.729 25.7772C158.822 25.7772 159.834 25.4852 160.759 24.9012C161.712 24.3172 162.456 23.4861 162.991 22.3989C163.554 21.3163 163.835 20.0809 163.835 18.6882C163.835 17.2956 163.554 16.0782 162.991 15.0225C162.456 13.9398 161.717 13.1042 160.759 12.5202C159.834 11.9362 158.822 11.6442 157.729 11.6442C156.636 11.6442 155.583 11.9362 154.658 12.5202C153.732 13.1042 152.988 13.9353 152.425 15.0225C151.89 16.0782 151.627 17.3001 151.627 18.6882C151.627 20.0764 151.895 21.3567 152.425 22.4394C152.988 23.4951 153.732 24.3172 154.658 24.8967C155.583 25.4807 156.608 25.7727 157.729 25.7727V25.7772Z" fill="#EE6C4D"/>
<path d="M127.873 39.8924H127.11V39.1377H127.873V39.8924Z" fill="#F5F4EF"/>
<path d="M137.549 40.0001C136.887 40.0001 136.284 39.8384 135.73 39.5149C135.186 39.1825 134.755 38.7243 134.433 38.1358C134.115 37.5473 133.952 36.8734 133.952 36.1187C133.952 35.364 134.111 34.6901 134.433 34.1016C134.75 33.5131 135.186 33.0549 135.73 32.7315C136.284 32.399 136.887 32.2373 137.549 32.2373C138.357 32.2373 139.06 32.4619 139.664 32.9156C140.267 33.3694 140.675 33.9848 140.893 34.771H140.194C139.999 34.169 139.664 33.6973 139.192 33.3604C138.729 33.0235 138.18 32.8528 137.549 32.8528C137.014 32.8528 136.52 32.9875 136.07 33.2616C135.621 33.5356 135.263 33.9174 135.004 34.4161C134.741 34.9103 134.614 35.4808 134.614 36.1187C134.614 36.7566 134.746 37.3272 135.004 37.8213C135.263 38.3155 135.621 38.7018 136.07 38.9758C136.52 39.2499 137.014 39.3847 137.549 39.3847C138.18 39.3847 138.729 39.2139 139.192 38.868C139.664 38.5221 139.999 38.0369 140.194 37.4125H140.893C140.675 38.2166 140.267 38.8501 139.664 39.3083C139.069 39.7665 138.366 40.0001 137.549 40.0001Z" fill="#F5F4EF"/>
<path d="M150.27 40.0001C149.617 40.0001 149.018 39.8384 148.474 39.5149C147.929 39.1825 147.498 38.7243 147.176 38.1358C146.859 37.5473 146.695 36.8734 146.695 36.1187C146.695 35.364 146.854 34.6901 147.176 34.1016C147.494 33.5131 147.929 33.0549 148.474 32.7315C149.018 32.399 149.617 32.2373 150.27 32.2373C150.924 32.2373 151.532 32.4035 152.076 32.7315C152.62 33.0549 153.051 33.5131 153.374 34.1016C153.696 34.6901 153.854 35.364 153.854 36.1187C153.854 36.8734 153.696 37.5473 153.374 38.1358C153.056 38.7243 152.62 39.187 152.076 39.5149C151.532 39.8384 150.928 40.0001 150.27 40.0001ZM150.27 39.3847C150.806 39.3847 151.296 39.2499 151.74 38.9758C152.189 38.7018 152.548 38.32 152.806 37.8213C153.07 37.3272 153.197 36.7566 153.197 36.1187C153.197 35.4808 153.065 34.9103 152.806 34.4161C152.543 33.9219 152.189 33.5356 151.74 33.2616C151.296 32.9875 150.806 32.8528 150.27 32.8528C149.735 32.8528 149.245 32.9875 148.8 33.2616C148.356 33.5356 148.007 33.9174 147.743 34.4161C147.48 34.9103 147.353 35.4808 147.353 36.1187C147.353 36.7566 147.485 37.3272 147.743 37.8213C148.007 38.3155 148.356 38.7018 148.8 38.9758C149.245 39.2499 149.735 39.3847 150.27 39.3847Z" fill="#F5F4EF"/>
<path d="M160.814 39.8924H160.161V32.3452H161.413L163.971 39.1691H164.189L166.748 32.3452H168V39.8924H167.347V33.1763H167.129L164.602 39.8924H163.545L161.032 33.1763H160.814V39.8924Z" fill="#F5F4EF"/>
</g>
<defs>
<clipPath id="clip0_1_779">
<rect width="168" height="40" fill="white"/>
</clipPath>
</defs>
</svg>
