<?xml version="1.0" encoding="UTF-8"?><svg id="Capa_2" xmlns="http://www.w3.org/2000/svg" viewBox="0 0 258.69 197.72"><defs><style>.cls-1{fill:#fff;}.cls-2{fill:#ee6c4d;}</style></defs><g id="OCEANIA"><path class="cls-2" d="m257.26,60.06c.27-.2.61-.3.88-.5.28-.2.49-.56.35-.87-.13-.29-.5-.38-.82-.43-.71-.11-1.42-.22-2.14-.15s-1.43.36-1.88.91c-.45.55-.57,1.41-.16,1.99,1.04.23,2.26.43,3.07-.26.25-.22.44-.5.71-.7Z"/><path class="cls-2" d="m247.74,63.96c-.34.57-.19,1.32.17,1.88.52.81,1.46,1.33,2.42,1.35s1.92-.46,2.48-1.24c.09-.8.06-1.61-.1-2.39-1.16-.7-2.65-.84-3.92-.36-.42.15-.83.39-1.05.77Z"/><path class="cls-2" d="m201.16,77.1c-.41-.44-.62-1.02-.95-1.52-.33-.5-.89-.94-1.48-.83-.64.12-1,.85-1.02,1.5-.03,1,.5,1.96,1.21,2.67s1.59,1.21,2.47,1.71c1.23.7,2.46,1.4,3.69,2.09.38.22.76.43,1.16.62.46.22.94.39,1.43.53.28.08.59.13.84-.01.39-.23.36-.81.2-1.23-.54-1.36-1.89-2.18-3.16-2.9l-3.35-1.9c-.37-.21-.74-.42-1.03-.73Z"/><path class="cls-2" d="m219.48,180.8c1.69-1.11,2.92-2.78,4.1-4.41,1.25-1.73,2.55-3.57,2.73-5.69.05-.59.02-1.22.33-1.72.6-.97,2.01-.89,3.14-.68.09.64.18,1.28.27,1.92,1.89-.48,4.28-.8,5.45.76.7.93.65,2.26.19,3.33-.47,1.07-1.29,1.93-2.1,2.78-.91.95-1.82,1.89-2.72,2.84-.57.6-1.16,1.21-1.9,1.6-.55.29-1.18.46-1.66.87-.89.77-.96,2.16-1.73,3.06-.82.95-2.4,1.32-2.68,2.54-.1.42,0,.86-.1,1.28-.14.65-.68,1.13-1.19,1.56-1.05.88-2.09,1.77-3.14,2.65-2.53,2.14-5.46,4.4-8.75,4.07-2.1-.21-4.24-2.04-3.85-4.12.35-1.83,2.32-2.79,4.06-3.48-.72-.82.09-2.14,1.08-2.57,1-.43,2.16-.42,3.09-.98,1.49-.89,1.89-2.89,3.13-4.09.65-.63,1.49-1,2.24-1.5Z"/><path class="cls-2" d="m237.07,172.34c.31.71,1.33.65,2.08.47.22-.8.14-1.67-.23-2.41-.31-.06-.62-.11-.94-.17-.44.67-1.24,1.37-.91,2.11Z"/><path class="cls-2" d="m238.1,150.9c.14-.85,1.37-.83,2.2-.59.18.19.27.48.21.74.28,0,.56,0,.83,0,.4-.66.64-1.41.68-2.18.27-.26.77-.1.97.21.21.32.21.72.2,1.1-.01.76-.02,1.53-.03,2.29,0,.5,0,1.02.24,1.45.37.63,1.16.87,1.88.93.72.06,1.48,0,2.16.26s1.26.99,1.03,1.68c-.11.34-.4.6-.68.82-1.58,1.28-3.44,2.2-5.41,2.7-.44,1.23-.02,2.57.1,3.87.12,1.3-.28,2.89-1.54,3.26-.36.1-.83.04-.97-.3-.14-.32.09-.71,0-1.04-.16-.55-.92-.54-1.5-.55-1.6-.04-3.05-1.41-3.19-3-.73-.02-1.47-.05-2.2-.07-.79-.92-.5-2.54.56-3.14.86-.48,2.06-.36,2.7-1.11.97-1.15-.35-3.06.37-4.39.41-.76,1.44-1.2,1.47-2.06,0-.3-.12-.6-.07-.89Z"/><path class="cls-2" d="m232.31,139.4c.89-.12,2.03-.13,2.43.68.21,1.37.7,2.7,1.44,3.88.57.91,1.31,1.8,1.38,2.87.08,1.15-.97,2.38-2.09,2.13-1.34-2.31-2.68-4.62-4.02-6.93-.45-.78-.9-1.56-1.36-2.34.74-.1,1.48-.2,2.21-.3Z"/><path class="cls-2" d="m10.65,140.91c.01-1.93-1.33-3.78-3.16-4.38-.45-.15-1.05-.39-.97-.86.06-.38.52-.5.88-.62,1.38-.46,2.25-1.89,2.48-3.33.23-1.44-.08-2.9-.38-4.33.54.51,1.51-.11,1.57-.84.06-.74-.43-1.4-.94-1.93-.51-.54-1.08-1.08-1.23-1.81-.14-.67.08-1.46-.37-1.97-.31-.36-.83-.42-1.27-.61-1.68-.73-1.82-3.06-1.45-4.86.37-1.8.93-3.84-.14-5.33-.35-.49-.85-.85-1.28-1.28-1.2-1.2-1.8-2.86-2.37-4.46-.25-.72-.51-1.48-.37-2.23.14-.75.82-1.46,1.57-1.33.35.06.65.28,1,.31.64.06,1.17-.57,1.27-1.21.21-1.32-.88-2.47-2-3.2-1.11-.73-2.41-1.36-3.02-2.54-1.19-2.31.92-4.89,2.84-6.63,1.91-1.74,3.83-3.47,5.92-5,2.78-2.04,5.83-3.67,8.87-5.31.84-.45,1.68-.9,2.51-1.35,1.9-1.02,3.84-2.06,5.95-2.52,1.11-.25,2.46-.5,2.84-1.56.13-.38.11-.79.24-1.17.24-.68.91-1.08,1.51-1.47,1.89-1.24,3.47-2.94,4.58-4.91-.32-1-.64-2.03-.58-3.08s.6-2.14,1.57-2.55c.97-.41,2.31.16,2.44,1.21.03.27-.01.55.03.83.18,1.13,2.19,1.2,2.45.09.2-.83-.45-1.58-.92-2.3-.47-.71-.68-1.86.07-2.26.4.57.82,1.17,1.43,1.5.61.33,1.48.31,1.91-.23,1.05-1.34-1.53-3.41-.54-4.8,1.62.1,3.05-1.69,2.59-3.25,1.29.36,2.76.07,3.81-.77,1.54-1.22,3.9-2.5,5.46-1.31.04,1.27,1.27,2.37,2.54,2.27-.07,1.01.26,2.04.91,2.81.82.26,1.74-.5,1.8-1.36,1.37.43,2.74.87,4.11,1.3-1.74-1.28-1.01-4.01-.11-5.98.84-1.84,1.72-3.73,3.18-5.14,1.77-1.71,4.35-2.54,6.79-2.19.35-1.34-.04-2.84-1-3.84,1.71-.74,3.68.99,3.84,2.84,2.74-.79,5.94.55,7.32,3.05,1.09-.6,2.19-1.2,3.28-1.8-.08.61.1,1.25.48,1.73.42-.96,1.44-1.61,2.48-1.6.05,1.13.1,2.25.15,3.38-.83.5-1.87.48-2.81.73-.94.26-1.91,1.08-1.69,2.03.27,1.19,2.2,2.22,1.33,3.07-1.13-.54-2.65.44-2.64,1.69.64.22,1.29.44,1.93.66-.65,1.67,1.57,2.95,3.32,3.34,1.75.39,4.01,1.47,3.56,3.2,2.65.9,5.13,2.33,7.23,4.18.02.51.04,1.03.07,1.54,1.46.1,2.92.2,4.38.29-.82-1,.73-2.18,1.44-3.27.36-.57.49-1.25.61-1.92.88-4.82,1.77-9.65,2.65-14.47.21-1.17.42-2.43-.08-3.52,2.77.92,6.06,2.53,6.08,5.45,0,.92-.34,1.89.02,2.74.91,2.14,4.6.82,6.2,2.51,1.45,1.54.04,4.21.93,6.13.55,1.18,1.9,1.89,2.3,3.13.22.7.1,1.45.07,2.18-.11,2.17.54,4.38,1.82,6.14.28.38.59.75.97,1.01.56.38,1.24.54,1.88.75,4.54,1.51,7.39,6.18,8.36,10.87.29,1.39.96,3.23,2.37,3.03.32-.05.62-.21.94-.28,1.1-.24,2.17.75,2.44,1.85.27,1.1-.04,2.24-.34,3.33,1,.42,1.99.84,2.99,1.27-.49,1.16.75,2.25,1.7,3.08,1.47,1.27,2.58,2.94,3.32,4.75,1.94,4.71,1.41,10.03.84,15.1-.6,5.38-1.2,10.76-1.8,16.14-1.41-.06-2.79.92-3.21,2.27-.4,1.31-1.76,2.21-2.31,3.47-.46,1.07-.92,2.15-1.38,3.22-.78,1.81-1.56,3.63-2.16,5.51-.98,3.05-1.5,6.24-1.52,9.45-3.31-.12-6.66,1.14-9.07,3.42-1.08,1.02-2.15,2.32-3.63,2.41-2.43.15-3.68-2.86-5.72-4.19-1.3-.29-2.29,1.09-2.97,2.23-.68,1.14-1.94,2.4-3.13,1.8-1.07-.54-1.01-2.1-1.7-3.08-1.05-1.52-3.57-1.36-4.61-2.88-.31-.46-.46-1.04-.88-1.42-1.02-.92-2.95-.02-3.89-1.03-.45-.49-.53-1.33-1.14-1.61-.45-.21-.99,0-1.49-.07-1.89-.3-.91-3.52-2.21-4.93-.48-.52-1.21-.7-1.83-1.02-2-1.02-2.93-3.72-1.99-5.76-1.47,1.45-2.93,2.91-4.4,4.36-1.25-1.2-.5-3.34.61-4.67,1.11-1.33,2.58-2.61,2.67-4.34.02-.41-.05-.85-.33-1.15-.7-.78-2.01-.14-2.71.64-1.19,1.34-1.93,3.02-3,4.45-1.08,1.43-2.7,2.68-4.48,2.52-1.19-3.03-2.64-5.95-4.32-8.73-.44-.72-.89-1.43-1.5-2.01-.93-.87-2.14-1.36-3.33-1.83-3.57-1.42-7.37-2.86-11.15-2.16-4.07.76-7.63,3.96-11.77,3.67-2.45-.17-4.68-1.57-7.12-1.78-1.37-.12-2.76.15-4.07.56-3.07.97-5.81,2.73-8.59,4.36-7.25,4.26-14.64,7.13-22.63,9.78Z"/><path class="cls-2" d="m91.77,142.93c-1.23,0-2.34,1.15-2.28,2.37.01.27.08.54.22.76.43.67,1.36.73,2.15.71.65-.01,1.33-.03,1.9-.34.57-.31.99-1.01.76-1.61-.06-.17-.17-.31-.28-.46-.61-.78-1.49-1.43-2.48-1.44Z"/><path class="cls-2" d="m127.84,169.71c1.11.33,2.18-.51,3.06-1.25s2.09-1.47,3.11-.93c.72.38,1.02,1.27,1.1,2.08s0,1.66.27,2.43c.15.42.39.8.53,1.21.43,1.22-.07,2.71-1.16,3.42-.23.15-.5.28-.65.51-.13.2-.16.44-.18.67-.1.95-.21,1.9-.31,2.86-1.33.19-2.66.37-3.99.56-.33.05-.68.09-.98-.04-.63-.28-.72-1.12-.8-1.8-.19-1.62-.83-3.14-1.53-4.62-.8-1.67-1.74-3.37-3.28-4.39-.54-.36-1.22-.75-1.24-1.4-.02-.83,1.03-1.19,1.86-1.26.61-.05,1.24-.07,1.8.19.91.42,1.44,1.48,2.4,1.77Z"/><path class="cls-2" d="m66.41,36.59c-.34.11-.69.23-.96.46-.27.24-.44.62-.32.96.88.29,1.81.45,2.73.48.72.02,1.55-.12,1.89-.76.2-.29-.07-.67-.36-.87-.49-.35-1.09-.57-1.69-.56-.44.01-.87.15-1.29.29Z"/><path class="cls-2" d="m143.32,12.41c.21-.02.43-.04.61-.14.42-.24.53-.81.89-1.13.39-.35.98-.32,1.5-.33.52-.02,1.14-.17,1.32-.67.09-.26.04-.57.19-.81.29-.45,1.14-.3,1.36-.79.08-.18.04-.4.11-.59.1-.28.41-.43.7-.47.7-.11,1.46.27,1.74.92.28.65,0,1.5-.64,1.8-.39.18-.89.17-1.19.48-.57.59.08,1.72-.44,2.36-.38.47-1.11.35-1.7.48-1,.22-1.64,1.19-2.5,1.74-1.41.91-3.26.64-4.86.12-.42-.14-.86-.3-1.12-.66-.2-.27-.28-.62-.54-.84-.27-.23-.66-.25-1-.35-1.03-.29-1.7-1.48-1.43-2.51,1.09-.13,2.28-.24,3.18.39.23.16.44.37.67.54.88.62,2.06.55,3.13.46Z"/><path class="cls-2" d="m155.43,7.43c.05.46.06.98-.25,1.32-.35.37-1.04.32-1.32-.11-.12-.19-.17-.41-.23-.63-.19-.72-.52-1.4-.97-1.98-.37.01-.63-.36-.78-.7-.2-.48-.3-1-.3-1.52.31-.18.63-.35.98-.38s.75.14.86.48c.13.38-.13.84.1,1.17.59.02,1.16.34,1.48.83.29.45.37.99.43,1.53Z"/><path class="cls-2" d="m165.02,13.57c-.03-.09-.03-.19-.05-.28-.1-.36-.57-.46-.94-.46-.38,0-.83-.02-1.02-.35-.1-.17-.09-.37-.15-.55-.13-.44-.67-.71-1.1-.56-.33.11-.57.43-.68.77s-.11.7-.11,1.05v.63c0,.13,0,.26.04.38.21.53,1.04.4,1.46.78-.17.35-.1.79.14,1.09s.65.45,1.03.42c.1,0,.22-.03.29.04.08.07.07.2.06.31-.05.73.49,1.46,1.2,1.61.17.04.34.04.5,0,.29-.09.49-.37.57-.67.08-.29.07-.61.05-.91-.02-.38-.04-.76-.06-1.14-.03-.62-.12-1.34-.64-1.68-.22-.15-.53-.23-.61-.48Z"/><path class="cls-2" d="m169.37,16.65c-.46-.03-.93.23-1.15.65-.03.05-.05.11-.1.15-.07.06-.18.07-.27.11-.21.1-.22.4-.15.61.21.64,1,1.02,1.63.78.05-.02.1-.04.15-.02.05.02.07.08.1.13.16.37.49.68.89.76.4.08.85-.11,1.02-.48.08-.16.1-.35.11-.53.04-.52.04-1.04,0-1.56-.75.25-1.45-.56-2.23-.61Z"/><path class="cls-2" d="m178.01,23.06c-.49.06-.99.13-1.48.05-.49-.08-.97-.33-1.22-.77-.41-.72-.03-1.63-.2-2.44.39-.18.86-.11,1.24.09s.69.51.99.82c-.06.3.34.46.64.5.42.05.84.11,1.25.16.16.59.6,1.1,1.16,1.35.06.36.12.73.06,1.09s-.26.72-.6.87c-.44.2-.98-.03-1.29-.4s-.44-.85-.57-1.32Z"/><path class="cls-2" d="m185.82,28.13c-.29.05-.62,0-.84.19-.38-.78-.75-1.56-1.13-2.35-.07-.14-.14-.28-.17-.44-.03-.14-.04-.28-.02-.43.03-.28.13-.55.29-.77.34.01.67.03,1.01.04.08,0,.17,0,.25.05.14.09.15.28.2.43.05.16.16.29.3.38.25.15.57.14.8.31.31.23.32.68.31,1.06,0,.29-.02.58-.14.85-.15.35-.48.61-.85.67Z"/><path class="cls-2" d="m182.73,31.14c.41.06.82.13,1.23.19.15-.53.08-1.12-.19-1.6-.09-.17-.21-.33-.26-.51-.12-.43.09-.98-.24-1.28-.25-.23-.65-.13-.97-.02-.27.09-.54.19-.81.28-.07.03-.15.05-.23.03-.26-.07-.16-.5-.37-.67-.08-.07-.2-.08-.3-.08-.41-.02-.85-.04-1.21.16-.39.21-.64.66-.61,1.1.03.44.35.85.76,1,.72.34,1.54.47,2.33.38.07,0,.15-.02.2.02.07.05.09.15.1.24.06.32.27.61.55.77Z"/><path class="cls-2" d="m189.16,31.41c-.08-.05-.18-.06-.28-.08-.5-.07-1.06-.11-1.44.21-.41.35-.44.96-.42,1.5,0,.24.01.48.12.7.17.35.55.54.92.68.49.19.99.34,1.5.46.54.12,1.15.19,1.6-.12.33-.22.53-.63.49-1.02s-.29-.77-.65-.93c-.48-.22-1.05-.09-1.57-.2-.16-.39.09-.97-.27-1.19Z"/><path class="cls-2" d="m143.03,30.47c-.23-.3-.39-.65-.61-.95-.74-1-2.07-1.31-3.21-1.8s-2.3-1.57-2.01-2.78c-.93.63-2.19-.28-2.62-1.31-.43-1.04-.67-2.08-1.25-3.03.16-.61-.37-1.19-.93-1.46-.56-.27-1.21-.39-1.7-.78-.49-.39-.7-1.25-.19-1.62.32-.23.76-.17,1.15-.12,1,.13,2.35-.24,2.36-1.25.01-.93-1.12-1.38-2.04-1.56-2.18-.43-4.61-1-5.78-2.89-.27-.43-.45-.92-.74-1.34-.26-.39-.6-.71-.94-1.03-1.34-1.28-2.73-2.6-4.48-3.21-.63-.22-1.31-.35-1.85-.75-.58-.43-.92-1.12-1.5-1.55-1.24-.92-3.05-.35-4.47-.93-.74-.3-1.32-.9-2.03-1.27-.66-.34-1.4-.48-2.13-.62-.07-.01-.15-.03-.22-.04v25.09c.16-.02.31-.05.46-.09-.25,1.21,1.15,2.14,2.38,2.2,1.23.06,2.48-.35,3.68-.07.29-.92,1.17-1.5,1.86-2.16.69-.67,1.25-1.75.73-2.56.65.23,1.31-.31,1.68-.89.37-.58.65-1.27,1.25-1.6.83-.47,1.89-.04,2.66.53.77.57,1.48,1.3,2.42,1.49.36.07.77.07,1.05.32.27.25.32.65.52.96.34.53,1.04.66,1.6.94.56.28,1.06,1.02.64,1.5,1.1.55,1.64,2,1.18,3.14,1.08.05,2.45.33,2.66,1.39.05.25.02.53.16.74.17.29.55.37.89.4,1.99.18,4.09-.5,5.96.23.83.32,1.53.9,2.33,1.3.79.4,1.78.61,2.55.16,0-.64,0-1.28.01-1.92-.58-.06-1.13-.36-1.49-.81Z"/><path class="cls-1" d="m255.05,61.39h0c-.54,0-1.11-.11-1.59-.22h-.06s-.03-.06-.03-.06c-.43-.61-.36-1.53.17-2.17.44-.54,1.14-.88,1.99-.97.16-.02.33-.03.5-.03.57,0,1.13.09,1.67.17.24.04.75.12.93.51.17.38-.07.82-.4,1.05-.14.1-.3.18-.45.25-.15.08-.3.15-.43.25-.13.1-.25.23-.37.36-.1.11-.21.23-.33.33-.41.35-.93.51-1.61.51Zm-1.47-.5c.45.1.98.2,1.47.2.6,0,1.06-.15,1.41-.44.11-.09.2-.19.3-.3.12-.14.25-.28.41-.4.15-.11.32-.19.48-.27.15-.07.28-.14.41-.23.22-.16.4-.45.3-.68-.1-.22-.4-.29-.71-.34-.7-.11-1.45-.22-2.1-.15-.76.08-1.4.39-1.78.86-.42.52-.5,1.27-.19,1.76Z"/><path class="cls-1" d="m250.4,67.33h-.07c-1.02-.02-1.99-.57-2.54-1.42-.33-.52-.58-1.36-.18-2.03.21-.35.58-.63,1.13-.83,1.3-.49,2.86-.34,4.05.37l.06.03v.06c.18.8.21,1.62.12,2.44l-.03.07c-.57.8-1.55,1.3-2.54,1.3Zm-.03-4.27c-.53,0-1.04.09-1.52.27-.48.18-.8.41-.98.7-.34.56-.12,1.27.17,1.72.5.77,1.38,1.26,2.3,1.28h.06c.88,0,1.75-.44,2.27-1.15.08-.75.05-1.5-.09-2.24-.66-.38-1.43-.59-2.21-.59Z"/><path class="cls-1" d="m208.14,84.1h0c-.18,0-.37-.04-.51-.08-.5-.14-.99-.32-1.45-.54-.39-.18-.77-.4-1.14-.61l-3.72-2.11c-.87-.5-1.78-1.01-2.5-1.74-.82-.82-1.28-1.83-1.25-2.78.02-.72.42-1.51,1.14-1.65.58-.12,1.19.25,1.63.9.13.19.24.4.34.59.18.33.35.65.59.9.28.29.64.5.99.7l3.35,1.9c1.4.79,2.69,1.62,3.23,2.97.2.51.2,1.14-.26,1.42-.13.08-.28.11-.45.11Zm-9.22-9.22c-.05,0-.1,0-.16.01-.56.11-.88.76-.89,1.36-.02.87.4,1.8,1.16,2.56.7.7,1.58,1.2,2.44,1.69l3.69,2.09c.39.22.77.43,1.15.61.45.21.92.38,1.4.52.22.06.54.11.72,0,.3-.18.28-.67.13-1.05-.5-1.27-1.75-2.06-3.1-2.82l-3.35-1.9c-.37-.21-.76-.43-1.06-.75-.27-.29-.46-.63-.64-.97-.1-.19-.21-.39-.33-.57-.25-.38-.69-.78-1.17-.78Z"/><path class="cls-1" d="m210.38,197.72c-.22,0-.45-.01-.67-.03-1.31-.13-2.6-.85-3.36-1.87-.56-.75-.78-1.59-.62-2.42.34-1.8,2.17-2.79,3.97-3.52-.18-.29-.23-.63-.15-1,.15-.67.73-1.34,1.41-1.64.45-.2.93-.3,1.4-.41.6-.14,1.18-.26,1.68-.57.81-.49,1.29-1.32,1.79-2.19.38-.66.77-1.35,1.32-1.88.46-.44,1.01-.76,1.54-1.07.24-.14.49-.29.73-.44,1.69-1.11,2.95-2.84,4.07-4.37,1.12-1.55,2.52-3.47,2.71-5.62,0-.11.02-.22.02-.33.03-.5.06-1.02.33-1.46.36-.59,1.04-.88,2.01-.88.37,0,.8.04,1.29.13l.11.02.26,1.86c.99-.24,1.82-.36,2.54-.36,1.33,0,2.3.41,2.91,1.21.8,1.07.63,2.5.2,3.48-.48,1.11-1.36,2.02-2.13,2.82l-2.72,2.84c-.58.6-1.17,1.23-1.93,1.63-.19.1-.4.19-.6.28-.38.16-.74.32-1.04.57-.46.4-.69.97-.93,1.57-.21.51-.42,1.04-.79,1.47-.33.39-.78.67-1.21.95-.66.43-1.28.83-1.44,1.52-.04.2-.05.4-.05.61,0,.22,0,.44-.05.67-.15.67-.67,1.16-1.24,1.64l-3.14,2.65c-2.48,2.09-5.15,4.14-8.19,4.14Zm18.15-29.42c-.87,0-1.44.24-1.75.74-.23.38-.26.83-.29,1.32,0,.11-.01.23-.02.34-.19,2.23-1.62,4.19-2.76,5.77-1.13,1.55-2.41,3.31-4.14,4.45-.24.16-.49.3-.74.45-.52.3-1.05.61-1.48,1.03-.52.5-.9,1.17-1.27,1.81-.5.87-1.01,1.77-1.89,2.3-.54.33-1.17.46-1.77.6-.45.1-.92.21-1.34.39-.59.25-1.11.86-1.23,1.43-.05.24-.06.6.21.91l.14.16-.2.08c-1.78.7-3.64,1.65-3.96,3.37-.14.75.05,1.5.57,2.19.7.94,1.94,1.63,3.15,1.75.21.02.43.03.64.03,2.94,0,5.56-2.01,8-4.06l3.14-2.65c.53-.45,1.01-.89,1.14-1.48.04-.19.04-.39.04-.6,0-.22,0-.45.05-.68.19-.81.89-1.27,1.57-1.71.41-.27.84-.55,1.15-.9.34-.39.54-.9.74-1.39.25-.61.5-1.24,1.01-1.68.33-.29.73-.46,1.11-.62.19-.08.39-.17.57-.27.72-.38,1.3-.98,1.86-1.57l2.72-2.84c.79-.82,1.61-1.68,2.07-2.73.39-.9.56-2.21-.17-3.18-.55-.74-1.42-1.09-2.67-1.09-.73,0-1.59.13-2.63.39l-.16.04-.27-1.98c-.43-.07-.8-.11-1.12-.11Z"/><path class="cls-1" d="m238.25,173.08c-.67,0-1.12-.24-1.31-.68-.28-.65.19-1.26.6-1.8.12-.15.23-.3.33-.45l.05-.08,1.11.2.03.07c.39.77.47,1.69.24,2.52l-.02.09-.09.02c-.34.08-.66.12-.94.12Zm-.19-2.68c-.09.13-.19.25-.29.38-.4.52-.77,1.01-.56,1.5.14.33.49.5,1.04.5.23,0,.5-.03.79-.09.18-.71.1-1.49-.21-2.15l-.77-.14Z"/><path class="cls-1" d="m240.62,167.67c-.38,0-.67-.16-.79-.44-.09-.21-.06-.43-.03-.63.02-.16.05-.3.01-.43-.11-.38-.61-.43-1.25-.44h-.1c-1.62-.05-3.11-1.41-3.32-3.01l-2.14-.07-.04-.05c-.41-.47-.57-1.14-.45-1.82.12-.68.5-1.25,1.05-1.55.37-.21.79-.31,1.19-.4.58-.14,1.12-.27,1.47-.68.47-.56.35-1.32.23-2.14-.12-.76-.24-1.55.13-2.22.17-.32.45-.58.71-.83.38-.36.73-.7.74-1.16,0-.12-.02-.23-.04-.36-.03-.18-.06-.36-.03-.55.09-.56.58-.86,1.37-.86.32,0,.68.05,1.02.15h.04s.03.04.03.04c.18.19.27.44.27.7h.58c.36-.62.58-1.32.61-2.04v-.06s.04-.04.04-.04c.31-.3.94-.16,1.2.24.24.37.23.82.23,1.19l-.03,2.29c0,.46-.01.97.22,1.38.36.61,1.16.8,1.76.85.19.02.39.02.59.03.54.02,1.09.04,1.61.24.74.29,1.38,1.08,1.12,1.87-.13.39-.44.66-.73.89-1.57,1.27-3.44,2.2-5.39,2.71-.28.86-.14,1.8,0,2.71.05.33.1.68.13,1.02.13,1.42-.33,3.03-1.64,3.42-.12.03-.24.05-.36.05Zm-7.48-5.32l2.27.07v.13c.14,1.51,1.54,2.83,3.05,2.87h.1c.57.02,1.36.04,1.54.66.05.19.02.38,0,.56-.03.17-.05.33,0,.47.1.24.42.26.52.26s.19-.01.28-.04c1.15-.34,1.55-1.84,1.43-3.1-.03-.33-.08-.67-.13-1-.15-.98-.3-1.99.04-2.93l.03-.08.08-.02c1.95-.49,3.8-1.41,5.36-2.67.25-.2.53-.44.63-.75.2-.6-.33-1.26-.94-1.5-.47-.18-.98-.2-1.52-.22-.2,0-.4-.02-.6-.03-.68-.06-1.57-.28-2-1-.28-.48-.27-1.06-.26-1.53l.03-2.29c0-.32,0-.73-.18-1.02-.15-.23-.51-.35-.7-.22-.05.77-.29,1.53-.69,2.18l-.04.07h-1.1s.04-.18.04-.18c.04-.2-.02-.42-.15-.58-.29-.08-.61-.13-.89-.13-.44,0-.99.11-1.08.61-.02.14,0,.29.03.45.02.13.04.27.04.42-.02.58-.43.98-.83,1.37-.25.24-.5.48-.65.76-.32.58-.2,1.32-.09,2.04.13.84.26,1.72-.29,2.38-.41.49-1.03.63-1.63.78-.39.09-.78.19-1.12.37-.47.26-.79.75-.9,1.34-.1.57.02,1.12.34,1.52Z"/><path class="cls-1" d="m235.77,149.15c-.11,0-.22-.01-.33-.04h-.06s-1.52-2.63-1.52-2.63l-4-6.89,2.43-.33c1.4-.19,2.24.07,2.59.76v.04c.22,1.35.71,2.67,1.43,3.83.11.17.22.34.34.51.5.75,1.01,1.52,1.07,2.42.04.6-.19,1.23-.63,1.7-.37.4-.84.62-1.31.62Zm-.2-.32c.45.07.93-.11,1.3-.51.38-.41.59-.96.55-1.48-.06-.83-.55-1.57-1.02-2.28-.12-.17-.23-.35-.34-.52-.74-1.19-1.25-2.54-1.46-3.92-.29-.55-1.04-.75-2.26-.58l-1.99.27,5.23,9.01Z"/><path class="cls-1" d="m128.14,159.37c-1.52,0-2.6-1.2-3.65-2.36-.61-.68-1.24-1.37-1.96-1.85-.1-.02-.19-.03-.29-.03-1.05,0-1.89,1.17-2.5,2.19-.58.98-1.58,2.03-2.62,2.03-.24,0-.48-.06-.71-.17-.71-.36-.96-1.12-1.2-1.86-.15-.45-.3-.91-.55-1.27-.5-.72-1.34-1.04-2.24-1.38-.9-.34-1.83-.7-2.38-1.5-.12-.18-.22-.38-.32-.58-.15-.31-.3-.6-.53-.81-.46-.41-1.12-.43-1.83-.44-.76-.02-1.55-.03-2.07-.6-.2-.21-.33-.48-.45-.74-.17-.35-.33-.69-.64-.83-.2-.09-.49-.09-.79-.06-.22.02-.44.04-.66,0-1.18-.18-1.35-1.4-1.51-2.58-.12-.9-.25-1.82-.79-2.4-.32-.35-.76-.54-1.23-.73-.19-.08-.38-.16-.57-.26-1.87-.96-2.84-3.31-2.29-5.31l-4.03,3.99-.11-.1c-1.26-1.21-.65-3.37.6-4.88.21-.25.44-.51.66-.76.94-1.05,1.91-2.14,1.98-3.49.02-.31-.02-.75-.29-1.04-.18-.2-.42-.31-.71-.31-.64,0-1.35.48-1.77.95-.68.76-1.22,1.65-1.74,2.52-.39.65-.79,1.31-1.26,1.93-1.24,1.65-2.8,2.59-4.3,2.59-.11,0-.21,0-.32-.01h-.09s-.03-.09-.03-.09c-1.18-3.01-2.63-5.94-4.31-8.71-.42-.69-.88-1.41-1.48-1.98-.92-.86-2.12-1.34-3.28-1.8-3.21-1.28-6.11-2.33-9.05-2.33-.69,0-1.37.06-2.01.18-1.68.31-3.3,1.06-4.87,1.78-2.21,1.01-4.49,2.06-6.94,1.89-1.26-.09-2.48-.5-3.65-.9-1.12-.38-2.28-.78-3.47-.88-1.19-.1-2.5.08-4.01.55-2.66.84-5.11,2.29-7.48,3.71-.36.21-.72.43-1.08.64-7.84,4.61-15.85,7.54-22.66,9.8l-.2.07v-.21c.01-1.85-1.3-3.67-3.06-4.23-.32-.1-1.18-.38-1.07-1.02.07-.44.54-.6.91-.72l.07-.02c1.2-.4,2.14-1.66,2.38-3.21.22-1.43-.09-2.94-.37-4.27l-.1-.47.35.33c.1.1.23.14.37.14.44,0,.91-.44.95-.89.06-.7-.45-1.34-.9-1.82l-.13-.14c-.49-.51-.99-1.04-1.14-1.74-.05-.25-.06-.5-.06-.75,0-.44-.02-.85-.27-1.15-.19-.22-.49-.32-.8-.42-.14-.05-.28-.09-.41-.15-1.74-.76-1.93-3.09-1.53-5.03l.1-.46c.36-1.69.73-3.45-.21-4.75-.23-.31-.51-.57-.81-.84-.15-.14-.3-.27-.45-.42-1.25-1.25-1.86-2.98-2.4-4.51-.24-.66-.53-1.49-.38-2.3.14-.76.86-1.6,1.74-1.45.18.03.34.1.49.16.17.07.33.14.5.15.59.05,1.03-.54,1.11-1.08.23-1.46-1.27-2.62-1.93-3.06-.2-.13-.41-.26-.62-.39-.95-.59-1.93-1.2-2.45-2.21-.96-1.88.03-4.23,2.87-6.81,1.88-1.71,3.83-3.47,5.93-5.01,2.79-2.04,5.89-3.71,8.88-5.32l2.51-1.35c1.89-1.01,3.84-2.06,5.99-2.54l.14-.03c1.06-.23,2.25-.49,2.58-1.44.06-.17.09-.36.11-.56.03-.2.06-.41.13-.61.24-.68.88-1.1,1.44-1.47l.12-.08c1.85-1.22,3.4-2.88,4.5-4.8-.3-.94-.63-2-.57-3.07.07-1.23.73-2.28,1.66-2.68.23-.1.48-.15.74-.15.85,0,1.8.55,1.91,1.47.02.14.01.28.01.41,0,.14,0,.28.02.41.08.52.63.76,1.11.76.41,0,.93-.18,1.05-.68.15-.64-.27-1.26-.69-1.86-.07-.11-.15-.21-.21-.32-.28-.43-.56-1.16-.4-1.78.08-.31.26-.55.52-.7l.12-.06.08.11c.37.53.78,1.13,1.38,1.45.24.13.52.2.8.2.39,0,.72-.14.92-.4.47-.6.11-1.4-.27-2.24-.4-.88-.81-1.79-.27-2.55l.05-.07h.08c.73.04,1.5-.33,2-1.01.47-.62.63-1.39.44-2.05l-.08-.26.26.07c.35.1.71.15,1.09.15.95,0,1.87-.32,2.59-.89.85-.68,2.51-1.82,4.07-1.82.6,0,1.13.17,1.57.51l.06.04v.07c.04,1.16,1.22,2.21,2.38,2.12h.17s-.01.16-.01.16c-.07.96.24,1.93.84,2.67.08.02.17.03.25.03.64,0,1.26-.61,1.31-1.27v-.19s3.69,1.17,3.69,1.17c-1.26-1.55-.37-4.17.33-5.7.8-1.75,1.71-3.74,3.21-5.18,1.53-1.47,3.63-2.31,5.79-2.31.33,0,.67.02.99.06.28-1.25-.11-2.64-1-3.57l-.15-.16.2-.09c.29-.12.59-.19.9-.19,1.45,0,2.9,1.4,3.13,2.97.48-.12.99-.18,1.5-.18,2.33,0,4.61,1.29,5.74,3.22l3.41-1.88-.04.29c-.06.49.05,1,.31,1.42.49-.87,1.46-1.45,2.46-1.45h.19s.16,3.61.16,3.61l-.08.05c-.57.34-1.23.45-1.86.55-.33.05-.67.11-.99.2-.91.25-1.77,1.03-1.58,1.85.1.44.46.88.81,1.29.54.64,1.1,1.31.48,1.92l-.07.07-.09-.04c-.6-.29-1.42-.09-1.94.44-.29.29-.45.64-.48,1l1.98.67-.06.15c-.16.42-.14.83.08,1.23.5.95,1.94,1.64,3.14,1.9.62.14,2.69.68,3.46,1.95.25.41.33.84.24,1.3,2.61.9,5.08,2.34,7.15,4.17l.05.04.06,1.47,3.95.27c-.36-.77.33-1.59.94-2.33.24-.28.48-.58.66-.86.35-.55.48-1.22.59-1.86l2.65-14.47c.24-1.28.39-2.43-.07-3.43l-.15-.31.33.11c4.14,1.39,6.16,3.21,6.18,5.59,0,.32-.04.64-.08.95-.07.62-.14,1.2.08,1.73.45,1.07,1.69,1.21,3,1.37,1.18.14,2.39.28,3.17,1.1.85.9.77,2.16.69,3.39-.06.96-.12,1.96.26,2.78.24.53.66.97,1.07,1.4.5.52,1.01,1.05,1.23,1.76.19.59.14,1.21.1,1.82,0,.14-.02.28-.03.42-.11,2.15.53,4.3,1.79,6.04.23.31.54.7.94.98.42.29.94.45,1.43.6.14.04.28.09.41.13,4.91,1.63,7.59,6.74,8.46,10.98.23,1.09.79,2.93,2.01,2.93.06,0,.12,0,.19-.01.16-.02.32-.08.49-.14.14-.05.29-.1.44-.14.12-.03.24-.04.37-.04,1.1,0,2.01,1.02,2.25,2,.27,1.12-.04,2.3-.31,3.28l3.01,1.27-.06.14c-.46,1.07.77,2.13,1.66,2.9,1.4,1.21,2.56,2.87,3.36,4.8,2,4.87,1.39,10.34.85,15.17l-1.81,16.28h-.14s-.08,0-.11,0c-1.3,0-2.56.93-2.94,2.16-.23.73-.74,1.34-1.23,1.93-.41.49-.84,1-1.08,1.56l-1.38,3.22c-.77,1.79-1.56,3.63-2.16,5.49-.98,3.04-1.49,6.2-1.51,9.4v.15s-.16,0-.16,0c-3.31-.11-6.58,1.13-8.96,3.38-.16.15-.33.32-.49.48-.94.93-1.92,1.89-3.24,1.97-.06,0-.12,0-.18,0Zm-5.9-4.54c.13,0,.25.01.38.04l.05.02c.76.5,1.41,1.22,2.04,1.91,1.09,1.21,2.13,2.34,3.59,2.25,1.2-.07,2.14-1,3.04-1.89.17-.16.33-.33.5-.48,2.4-2.27,5.72-3.53,9.02-3.46.04-3.18.55-6.32,1.53-9.34.61-1.88,1.4-3.72,2.16-5.5l1.39-3.24c.26-.6.7-1.13,1.12-1.63.5-.59.97-1.15,1.18-1.83.42-1.37,1.77-2.37,3.22-2.38l1.78-16.01c.53-4.8,1.14-10.23-.83-15.03-.78-1.89-1.91-3.51-3.28-4.69-.93-.8-2.19-1.89-1.79-3.11l-2.96-1.25v-.14c.3-1.01.62-2.17.35-3.25-.21-.87-1-1.77-1.96-1.77-.1,0-.2.01-.3.03-.13.03-.26.08-.4.12-.17.06-.35.13-.55.15-1.6.24-2.28-1.91-2.54-3.15-.86-4.16-3.48-9.16-8.26-10.75-.13-.04-.27-.09-.41-.13-.52-.16-1.05-.33-1.51-.64-.44-.3-.77-.72-1.01-1.05-1.31-1.8-1.96-4.01-1.85-6.23,0-.14.02-.28.03-.43.04-.57.08-1.17-.09-1.7-.2-.64-.67-1.12-1.16-1.64-.42-.45-.86-.91-1.13-1.48-.41-.89-.35-1.93-.29-2.93.08-1.21.15-2.36-.61-3.16-.7-.74-1.86-.88-2.98-1.01-1.34-.16-2.72-.32-3.24-1.55-.26-.6-.18-1.25-.1-1.88.04-.3.07-.62.07-.92-.01-2.17-1.87-3.88-5.67-5.2.34,1,.19,2.09-.03,3.3l-2.65,14.47c-.12.64-.25,1.37-.64,1.97-.19.29-.44.59-.68.88-.67.81-1.3,1.57-.77,2.21l.22.27-4.86-.33-.07-1.61c-2.07-1.81-4.53-3.23-7.13-4.11l-.13-.04.04-.14c.11-.42.05-.83-.18-1.2-.57-.93-2.06-1.55-3.27-1.81-1.26-.28-2.79-1.03-3.34-2.06-.23-.43-.28-.88-.14-1.33l-1.89-.64v-.11c0-.48.19-.95.57-1.32.58-.59,1.49-.82,2.18-.55.29-.37-.03-.8-.56-1.44-.37-.45-.76-.91-.88-1.42-.23-1.01.73-1.91,1.79-2.2.33-.09.68-.15,1.02-.2.6-.1,1.18-.19,1.68-.47l-.14-3.14c-.93.04-1.83.65-2.2,1.5l-.1.23-.16-.2c-.35-.44-.53-1-.53-1.56l-3.17,1.75-.07-.13c-1.05-1.91-3.28-3.19-5.55-3.19-.55,0-1.08.07-1.59.22l-.17.05-.02-.18c-.13-1.51-1.48-2.88-2.85-2.88-.2,0-.39.03-.58.09.88,1.03,1.23,2.5.89,3.82l-.03.13-.13-.02c-.36-.05-.72-.08-1.09-.08-2.08,0-4.11.81-5.58,2.23-1.46,1.4-2.35,3.36-3.14,5.09-.74,1.61-1.7,4.49.06,5.79l.73.54-4.81-1.52c-.14.75-.84,1.36-1.58,1.36-.13,0-.26-.02-.38-.06h-.04s-.03-.05-.03-.05c-.64-.76-.98-1.76-.95-2.75h0c-1.28,0-2.44-1.09-2.52-2.34-.37-.27-.82-.4-1.33-.4-1.47,0-3.07,1.1-3.89,1.75-.77.62-1.76.96-2.78.96-.32,0-.62-.03-.93-.1.12.68-.08,1.44-.54,2.06-.53.71-1.33,1.14-2.12,1.14-.02,0-.04,0-.05,0-.37.61-.03,1.37.34,2.18.4.89.82,1.81.23,2.55-.26.33-.67.51-1.16.51-.32,0-.66-.08-.94-.24-.61-.33-1.03-.9-1.4-1.43-.13.1-.22.25-.26.43-.12.5.09,1.13.36,1.55.07.1.14.21.21.31.43.62.91,1.33.73,2.1-.13.56-.66.91-1.34.91-.6,0-1.29-.32-1.4-1.01-.03-.16-.02-.31-.02-.47,0-.13,0-.25-.01-.37-.09-.76-.89-1.21-1.61-1.21-.22,0-.43.04-.62.12-.83.35-1.41,1.3-1.48,2.42-.06,1.04.28,2.1.57,3.03l.02.06-.03.06c-1.12,1.99-2.72,3.7-4.63,4.96l-.12.08c-.55.36-1.12.73-1.33,1.32-.06.17-.09.36-.11.55-.03.2-.06.41-.13.61-.39,1.1-1.73,1.39-2.8,1.63l-.14.03c-2.1.47-4.04,1.5-5.91,2.51l-2.51,1.35c-2.99,1.6-6.07,3.26-8.85,5.3-2.09,1.53-4.03,3.29-5.91,4.99-1.91,1.73-3.94,4.25-2.81,6.45.48.93,1.42,1.52,2.34,2.09.21.13.42.26.63.4.71.46,2.32,1.72,2.06,3.35-.11.69-.68,1.39-1.43,1.33-.21-.02-.4-.1-.58-.17-.15-.06-.29-.12-.43-.14-.7-.1-1.28.58-1.4,1.21-.13.73.13,1.48.37,2.15.53,1.5,1.13,3.2,2.33,4.4.14.14.29.27.44.41.3.27.61.55.86.89,1.03,1.42.62,3.31.26,4.99l-.1.46c-.37,1.82-.21,4.01,1.36,4.69.12.05.26.1.39.14.34.11.69.23.93.51.33.37.34.86.35,1.34,0,.24,0,.48.06.7.13.62.6,1.11,1.06,1.59l.14.14c.49.52,1.05,1.23.98,2.05-.05.61-.65,1.17-1.25,1.17-.09,0-.18-.01-.26-.04.27,1.27.52,2.69.31,4.05-.26,1.66-1.27,3.01-2.58,3.45l-.07.02c-.31.1-.67.22-.71.48-.04.26.23.48.87.69,1.84.59,3.19,2.39,3.26,4.31,6.75-2.24,14.66-5.16,22.4-9.71.36-.21.72-.42,1.08-.64,2.39-1.42,4.86-2.89,7.54-3.73,1.56-.49,2.9-.67,4.13-.57,1.22.11,2.4.51,3.54.89,1.16.39,2.36.8,3.58.89,2.37.16,4.52-.82,6.79-1.87,1.58-.73,3.22-1.48,4.94-1.8.66-.12,1.36-.19,2.06-.19,3,0,5.92,1.07,9.16,2.35,1.13.45,2.41.96,3.37,1.86.63.59,1.1,1.33,1.53,2.04,1.67,2.75,3.12,5.67,4.3,8.67.07,0,.13,0,.2,0,1.98,0,3.5-1.73,4.06-2.47.45-.6.85-1.26,1.24-1.9.53-.88,1.08-1.78,1.77-2.56.46-.52,1.26-1.05,2-1.05.37,0,.7.14.94.41.34.37.38.89.36,1.26-.08,1.45-1.08,2.58-2.05,3.67-.22.25-.45.5-.66.75-.91,1.1-1.83,3.13-.72,4.36l4.88-4.84-.35.76c-.91,1.97-.02,4.57,1.92,5.56.18.09.36.17.55.25.48.2.97.41,1.33.81.6.65.73,1.62.86,2.56.16,1.17.3,2.17,1.26,2.32.19.03.39.01.58,0,.13-.01.25-.02.38-.02.23,0,.4.04.56.11.41.19.6.59.79.97.12.24.23.49.4.67.44.47,1.13.49,1.86.5.73.02,1.48.03,2.02.52.28.25.44.58.6.9.09.19.19.38.3.54.49.72,1.34,1.05,2.24,1.39.9.34,1.83.7,2.37,1.49.28.4.44.88.59,1.35.23.71.45,1.38,1.05,1.68.18.09.38.14.57.14.92,0,1.82-.97,2.36-1.88.65-1.09,1.55-2.34,2.75-2.34Z"/><path class="cls-1" d="m129.12,181.46c-.21,0-.39-.03-.55-.1-.7-.31-.8-1.19-.89-1.9-.19-1.64-.84-3.17-1.52-4.59-.79-1.66-1.73-3.34-3.22-4.33l-.14-.09c-.54-.35-1.15-.76-1.17-1.43-.02-.92,1.06-1.34,1.99-1.41.26-.02.45-.03.63-.03.5,0,.89.07,1.24.23.44.2.79.55,1.13.88.39.38.76.74,1.24.88.15.04.31.07.46.07.85,0,1.68-.64,2.46-1.29,1.3-1.09,2.42-1.41,3.28-.95.89.47,1.12,1.58,1.17,2.2.02.25.03.5.04.75.02.58.04,1.12.22,1.64.07.2.16.39.26.6.1.2.2.4.27.62.46,1.3-.07,2.85-1.22,3.59-.05.03-.1.06-.15.09-.18.11-.36.22-.46.37-.11.17-.13.4-.16.6l-.32,2.97-4.11.58c-.18.03-.35.05-.52.05Zm-4.85-13.59c-.17,0-.36,0-.61.03-.65.05-1.74.35-1.72,1.11.01.52.53.86,1.03,1.19l.14.09c1.55,1.03,2.52,2.75,3.33,4.45.69,1.44,1.35,3.01,1.54,4.66.08.69.17,1.44.71,1.68.22.1.54.08.9.03l3.88-.55.3-2.74c.03-.24.06-.51.21-.74.14-.21.35-.34.55-.47.05-.03.09-.06.14-.09,1.03-.66,1.51-2.09,1.1-3.24-.07-.2-.16-.38-.26-.58-.1-.2-.2-.41-.28-.63-.2-.56-.22-1.16-.24-1.73,0-.25-.02-.49-.04-.74-.05-.56-.25-1.56-1.02-1.97-.75-.4-1.75-.08-2.95.92-.82.69-1.7,1.36-2.66,1.36h0c-.19,0-.37-.03-.55-.08-.55-.16-.97-.57-1.37-.96-.34-.33-.65-.64-1.05-.82-.3-.14-.66-.2-1.11-.2Z"/><path class="cls-1" d="m143.05,16.01c-.79,0-1.69-.16-2.68-.48-.42-.14-.9-.32-1.2-.71-.09-.12-.15-.25-.22-.37-.09-.17-.17-.33-.3-.44-.17-.15-.4-.2-.65-.25-.1-.02-.2-.04-.29-.07-1.11-.32-1.83-1.57-1.53-2.69l.03-.1h.1c.41-.06.88-.11,1.34-.11.82,0,1.44.16,1.94.51.12.09.24.18.35.28.1.09.21.18.32.26.48.33,1.09.49,1.92.49.38,0,.77-.03,1.11-.06.18-.02.39-.03.55-.12.2-.11.33-.33.46-.55.11-.2.23-.4.41-.56.39-.34.94-.35,1.42-.37h.18c.3-.01,1.01-.09,1.18-.57.03-.09.05-.2.06-.31.02-.18.04-.36.15-.53.17-.27.49-.36.76-.44.27-.08.5-.15.59-.34.03-.08.04-.17.05-.27,0-.1.02-.21.06-.31.11-.29.41-.51.82-.57.79-.12,1.6.32,1.9,1,.32.74-.01,1.67-.71,2-.16.07-.33.12-.49.16-.25.07-.5.13-.66.29-.25.25-.22.65-.2,1.08.03.45.06.91-.23,1.27-.31.38-.79.42-1.26.47-.18.02-.36.03-.53.07-.6.13-1.06.55-1.55,1-.28.25-.57.52-.9.73-.64.41-1.41.62-2.31.62Zm-6.6-4.84c-.18.92.44,1.97,1.35,2.23.09.03.18.04.27.07.27.06.56.12.78.32.17.15.27.34.37.53.06.12.12.23.19.33.24.32.67.48,1.05.6,2.03.66,3.61.62,4.73-.1.3-.2.58-.45.86-.7.5-.45,1.01-.92,1.69-1.07.18-.04.38-.06.57-.08.42-.04.82-.07,1.05-.36.22-.27.19-.65.17-1.06-.03-.47-.06-.95.28-1.3.22-.23.51-.3.8-.37.16-.04.31-.08.44-.14.55-.26.82-1.02.57-1.61-.25-.56-.93-.92-1.58-.83-.11.02-.48.09-.59.37-.02.07-.03.15-.04.24-.01.11-.02.24-.08.36-.14.32-.48.42-.78.5-.25.07-.48.14-.59.31-.07.11-.08.25-.1.4-.01.12-.03.25-.07.38-.17.46-.7.74-1.46.76h-.18c-.45.01-.92.02-1.23.29-.14.12-.24.3-.35.48-.15.25-.3.51-.57.67-.22.12-.47.14-.67.16-.34.03-.74.06-1.14.06-.9,0-1.57-.17-2.1-.54-.12-.08-.23-.18-.34-.27-.11-.09-.21-.18-.33-.26-.45-.31-1.01-.46-1.77-.46-.41,0-.83.04-1.2.09Z"/><path class="cls-1" d="m154.57,9.15c-.35,0-.66-.16-.84-.42-.12-.18-.17-.39-.22-.58l-.02-.09c-.17-.67-.49-1.32-.9-1.88-.35-.04-.64-.32-.84-.79-.2-.5-.31-1.04-.31-1.58v-.09l.08-.04c.3-.17.65-.37,1.04-.4.46-.03.89.21,1.01.58.07.2.04.4.02.6-.02.18-.04.34.02.47.61.04,1.18.38,1.52.89.31.48.4,1.07.45,1.59.05.5.06,1.06-.29,1.44-.17.19-.44.3-.72.3Zm-1.85-3.26l.06.06c.46.6.8,1.3,1,2.04l.02.09c.05.18.09.35.18.49.12.18.34.29.59.29.2,0,.38-.07.5-.2.27-.29.26-.75.21-1.2-.05-.5-.13-1.03-.4-1.46-.3-.46-.82-.75-1.36-.76h-.08s-.04-.07-.04-.07c-.16-.23-.13-.5-.1-.74.02-.17.04-.33-.01-.47-.09-.28-.43-.39-.7-.38-.3.02-.57.17-.84.32.01.47.11.94.29,1.38.06.14.28.61.62.61h.07Z"/><path class="cls-1" d="m165.46,18.65c-.09,0-.19-.01-.28-.03-.79-.17-1.38-.97-1.32-1.77,0-.07.01-.17-.01-.19-.02-.01-.09-.01-.15,0-.07,0-.11,0-.15,0-.41,0-.79-.18-1.04-.48-.26-.32-.34-.76-.21-1.14-.15-.1-.35-.15-.54-.2-.34-.09-.73-.2-.87-.57-.06-.15-.06-.3-.06-.44v-.63c0-.36,0-.74.12-1.1.14-.42.42-.74.77-.86.1-.03.2-.05.3-.05.45,0,.87.3.99.71.02.07.04.15.05.23.02.11.04.21.08.29.14.25.52.27.89.27.6,0,.99.21,1.09.57.01.05.02.1.03.15,0,.04,0,.08.02.12.04.13.18.2.35.29.07.04.14.08.21.12.56.36.67,1.08.7,1.79l.06,1.14c.02.3.04.64-.06.96-.11.38-.36.67-.67.77-.09.03-.19.04-.3.04Zm-1.68-2.31c.11,0,.19.03.26.09.14.12.12.31.11.43-.05.66.45,1.33,1.09,1.46.16.04.31.03.42,0,.26-.08.42-.35.48-.57.08-.27.06-.57.05-.86l-.06-1.13c-.03-.65-.13-1.28-.57-1.57-.06-.04-.12-.07-.18-.1-.19-.1-.41-.22-.49-.46-.02-.06-.03-.12-.04-.18,0-.04,0-.07-.02-.11-.08-.31-.59-.35-.8-.35-.34,0-.91,0-1.15-.42-.07-.13-.1-.26-.12-.39-.01-.06-.02-.13-.04-.19-.1-.35-.56-.58-.91-.46-.26.09-.48.34-.58.67-.1.31-.1.67-.1,1.01v.63c0,.12,0,.24.03.33.09.23.36.31.67.39.27.07.54.15.75.33l.08.08-.05.1c-.14.29-.09.67.12.93.21.25.54.4.9.36.06,0,.1,0,.14,0Z"/><path class="cls-1" d="m170.65,19.99c-.07,0-.14,0-.21-.02-.43-.08-.81-.41-.99-.85,0-.01-.01-.03-.02-.05,0,0-.02.01-.03.02-.15.05-.3.08-.46.08-.61,0-1.19-.4-1.38-.96-.09-.28-.06-.65.23-.79.04-.02.09-.04.14-.05.04-.01.08-.02.1-.04.02-.02.04-.05.05-.09.25-.48.79-.78,1.3-.75.36.02.7.19,1.02.35.41.2.81.38,1.15.26l.18-.06.02.19c.04.53.04,1.06,0,1.59-.01.18-.04.39-.13.58-.17.35-.56.58-.98.58Zm-1.2-1.22s.07,0,.1.02c.11.04.15.15.18.21.15.35.45.61.78.68.35.07.72-.11.86-.39.07-.14.09-.31.1-.47.04-.45.04-.91.01-1.36-.41.05-.82-.13-1.2-.32-.3-.15-.6-.3-.91-.32-.39-.02-.82.2-1.01.56-.04.07-.07.14-.14.2-.07.06-.15.08-.22.1-.03,0-.06.02-.08.03-.12.06-.13.27-.08.43.14.43.61.75,1.09.75.12,0,.24-.02.35-.06.05-.02.1-.04.16-.04Z"/><path class="cls-1" d="m179.51,24.99c-.38,0-.78-.2-1.05-.53-.3-.36-.45-.82-.56-1.25-.47.06-.98.1-1.39.03-.6-.1-1.08-.41-1.32-.84-.26-.46-.23-.99-.19-1.49.02-.33.04-.68-.02-.99l-.02-.12.11-.05c.4-.19.91-.15,1.38.1.4.21.72.53,1.03.84l.06.06v.08s-.02.08,0,.11c.07.1.27.18.49.21l1.36.17.03.1c.15.54.56,1.02,1.08,1.25l.08.03v.08c.07.35.14.75.08,1.14-.08.46-.33.83-.68.98-.13.06-.27.09-.41.09Zm-1.4-2.1l.03.13c.12.43.25.91.54,1.26.29.34.77.51,1.11.36.31-.14.47-.48.51-.76.05-.32,0-.65-.05-.97-.54-.26-.96-.74-1.14-1.31l-1.16-.15c-.12-.01-.51-.08-.69-.33-.06-.08-.09-.17-.08-.26-.28-.28-.56-.56-.91-.74-.33-.18-.71-.23-1-.13.05.31.03.64,0,.95-.03.49-.06.94.16,1.33.2.35.6.61,1.11.69.42.07.95.02,1.44-.05l.13-.02Z"/><path class="cls-1" d="m184.93,28.56l-1.21-2.52c-.08-.16-.15-.31-.18-.47-.04-.15-.04-.31-.03-.48.03-.31.14-.6.32-.85l.05-.07,1.09.04c.09,0,.21,0,.32.08.15.1.19.26.23.4,0,.04.02.07.03.11.04.12.13.23.24.3.1.06.21.09.34.12.16.04.33.09.47.2.35.26.39.73.37,1.19,0,.29-.02.61-.15.9-.17.39-.54.69-.96.76-.09.02-.18.02-.28.03-.19.01-.37.03-.49.13l-.15.13Zm-.91-4.07c-.12.19-.2.41-.22.63-.01.14,0,.26.02.38.03.13.09.26.16.39l1.07,2.21c.16-.07.34-.09.5-.1.08,0,.17-.01.25-.03.32-.06.61-.29.74-.58.1-.24.11-.52.12-.79.01-.38,0-.76-.25-.94-.1-.07-.23-.11-.37-.15-.14-.04-.28-.07-.41-.15-.17-.1-.3-.27-.37-.46-.01-.04-.03-.09-.04-.13-.02-.1-.05-.19-.1-.22-.04-.02-.11-.03-.17-.03l-.92-.04Z"/><path class="cls-1" d="m184.08,31.51l-1.42-.23c-.32-.18-.56-.51-.62-.87,0-.05-.02-.13-.04-.14-.06,0-.08,0-.1,0-.81.09-1.67-.04-2.41-.39-.46-.16-.81-.62-.85-1.12-.04-.5.25-1.01.68-1.24.31-.16.65-.19.91-.19.13,0,.26,0,.38.01.11,0,.27.01.39.11.13.11.17.27.21.42.03.13.05.21.1.23.06,0,.1-.01.14-.03l.81-.28c.17-.06.4-.13.62-.13.2,0,.37.06.5.18.25.23.25.57.25.87,0,.17,0,.34.04.48.03.12.1.23.17.34.03.05.05.09.08.14.28.52.36,1.14.2,1.71l-.04.13Zm-1.29-.51l1.07.17c.09-.46.02-.95-.21-1.36-.02-.04-.05-.09-.08-.13-.08-.13-.16-.26-.2-.42-.05-.18-.05-.38-.05-.57,0-.27,0-.5-.15-.64-.17-.16-.56-.08-.82.01l-.81.28c-.1.03-.21.06-.32.04-.23-.06-.28-.28-.32-.45-.02-.1-.05-.21-.1-.25-.05-.04-.14-.04-.22-.05-.12,0-.24-.01-.37-.01-.33,0-.57.05-.77.15-.34.18-.55.57-.53.95.03.38.3.74.66.86.71.33,1.5.46,2.27.37.11-.01.22,0,.3.05.12.08.15.22.17.32.05.28.22.53.46.67Z"/><path class="cls-1" d="m190.33,35.12h0c-.23,0-.49-.03-.81-.1-.52-.12-1.03-.27-1.52-.46-.39-.15-.81-.35-1-.76-.12-.25-.13-.53-.13-.76-.01-.62.03-1.25.48-1.62.23-.19.54-.29.95-.29.21,0,.41.02.61.05.1.01.23.03.34.1.29.17.29.5.29.79,0,.14,0,.28.03.39.17.03.34.03.53.03.33,0,.67.01.99.16.41.19.7.61.73,1.06.04.45-.18.91-.56,1.16-.25.17-.55.25-.91.25Zm-2.03-3.69c-.34,0-.58.07-.75.22-.36.3-.38.87-.37,1.38,0,.2,0,.44.1.64.15.31.51.48.84.61.48.19.97.34,1.48.45.29.07.53.1.74.1h0c.3,0,.55-.06.74-.2.28-.19.45-.55.43-.89-.03-.34-.25-.67-.56-.81-.26-.12-.55-.13-.87-.13-.22,0-.45,0-.67-.05l-.08-.02-.03-.07c-.08-.18-.07-.39-.07-.58,0-.28,0-.45-.14-.53-.06-.04-.14-.05-.22-.06-.18-.02-.38-.05-.57-.05Z"/><path class="cls-1" d="m143.51,33.61h0c-.64,0-1.24-.23-1.62-.43-.34-.17-.66-.37-.97-.56-.43-.27-.87-.55-1.34-.73-.58-.23-1.25-.33-2.08-.33-.5,0-1.01.04-1.51.07-.78.06-1.64.1-2.33.04-.33-.03-.78-.11-1-.48-.11-.18-.12-.37-.14-.56,0-.08-.02-.16-.03-.23-.19-.96-1.48-1.22-2.52-1.27h-.21s.08-.21.08-.21c.43-1.06-.09-2.44-1.11-2.95l-.17-.09.13-.15c.1-.12.14-.26.11-.43-.06-.31-.36-.66-.7-.83-.15-.07-.31-.14-.47-.2-.45-.18-.92-.36-1.2-.79-.09-.13-.15-.28-.2-.43-.08-.2-.15-.38-.29-.5-.18-.16-.44-.2-.71-.24-.09-.01-.18-.03-.27-.04-.77-.15-1.39-.65-1.99-1.13-.16-.13-.33-.26-.5-.39-.35-.26-1.06-.7-1.78-.7-.26,0-.5.06-.72.18-.42.24-.68.67-.95,1.14-.08.14-.16.28-.25.42-.31.49-.87,1.01-1.5,1.01-.02,0-.03,0-.05,0,.29.82-.21,1.8-.9,2.47-.16.16-.33.31-.5.46-.57.5-1.11.98-1.32,1.65l-.04.13-.13-.03c-.59-.14-1.38-.09-2.12,0-.5.05-1.01.11-1.53.08-.85-.04-1.73-.47-2.19-1.07-.26-.33-.38-.7-.36-1.08-.09.02-.18.03-.27.04l-.16.02V0l.4.07c.73.14,1.49.28,2.18.63.32.17.62.38.9.58.37.26.72.51,1.12.68.6.25,1.29.28,1.96.31.89.05,1.82.09,2.55.64.3.23.54.52.77.8.23.28.45.55.72.75.38.28.84.42,1.32.57.16.05.33.1.49.16,1.81.63,3.26,2.02,4.53,3.24.34.32.69.66.96,1.06.16.24.29.5.42.75.1.2.21.41.32.59,1.1,1.78,3.32,2.35,5.68,2.82.81.16,2.18.6,2.16,1.71-.02,1.11-1.44,1.54-2.53,1.4h-.05c-.16-.03-.33-.05-.49-.05-.22,0-.38.04-.51.14-.18.13-.23.34-.23.48,0,.32.17.69.43.9.29.24.65.37,1.03.5.21.08.44.16.65.26.6.29,1.16.9,1.03,1.57.38.63.62,1.32.85,1.97.12.34.24.69.38,1.03.33.8,1.12,1.43,1.8,1.43.21,0,.41-.06.59-.18l.32-.22-.09.38c-.27,1.1.8,2.12,1.92,2.6.25.11.51.21.77.31.93.36,1.9.73,2.5,1.54.11.15.2.3.29.46.1.17.2.34.32.49.33.42.85.7,1.38.76h.14s-.01,2.15-.01,2.15l-.07.04c-.31.18-.67.27-1.07.27Zm-6.02-2.36c.87,0,1.57.11,2.19.36.5.19.95.48,1.39.76.31.19.62.39.94.55.36.18.91.4,1.49.4h0c.31,0,.6-.06.85-.19v-1.7c-.56-.09-1.09-.4-1.45-.85-.13-.17-.24-.35-.34-.53-.09-.15-.17-.29-.27-.43-.55-.75-1.47-1.1-2.36-1.44-.26-.1-.53-.2-.78-.31-1.13-.49-2.21-1.5-2.14-2.65-.15.06-.31.09-.48.09-.92,0-1.76-.83-2.08-1.61-.14-.35-.27-.7-.39-1.04-.24-.69-.47-1.35-.86-1.97l-.03-.06.02-.06c.14-.51-.33-1.03-.85-1.29-.2-.1-.41-.17-.62-.25-.38-.14-.78-.29-1.11-.55-.33-.27-.55-.73-.54-1.14,0-.3.13-.55.35-.71.18-.13.4-.19.69-.19.18,0,.35.02.52.04h.05c.94.12,2.18-.21,2.19-1.1.01-.93-1.34-1.3-1.92-1.41-2.33-.47-4.71-1.08-5.88-2.96-.12-.2-.23-.41-.33-.62-.13-.25-.25-.49-.4-.71-.25-.37-.59-.7-.92-1.01-1.25-1.2-2.67-2.56-4.42-3.17-.16-.05-.32-.1-.48-.15-.49-.15-.99-.3-1.41-.62-.3-.23-.54-.52-.78-.8-.23-.28-.45-.55-.72-.75-.66-.49-1.5-.53-2.38-.58-.69-.04-1.41-.07-2.06-.34-.43-.18-.81-.45-1.18-.71-.28-.2-.56-.4-.87-.56-.64-.34-1.38-.47-2.09-.6h-.04s0,24.74,0,24.74c.09-.02.18-.04.27-.06l.24-.08-.05.25c-.08.37.02.73.27,1.06.41.54,1.21.92,1.97.96.49.02.99-.03,1.48-.08.71-.08,1.49-.13,2.09-.01.26-.68.82-1.17,1.37-1.65.17-.15.33-.29.49-.45.69-.66,1.17-1.65.71-2.37l-.23-.37.41.15c.08.03.17.05.26.05.5,0,.98-.47,1.24-.87.08-.13.16-.27.24-.41.28-.48.56-.97,1.06-1.25.26-.15.55-.22.86-.22.81,0,1.57.48,1.96.76.17.13.34.26.5.39.57.46,1.16.93,1.86,1.07.08.02.17.03.25.04.31.05.62.09.87.31.19.17.28.4.37.62.05.13.1.26.17.37.22.34.63.5,1.05.67.17.07.33.13.49.21.43.21.78.64.86,1.05.04.2.01.38-.07.54,1.01.61,1.51,1.93,1.17,3.05,1.53.11,2.43.62,2.6,1.5.02.08.03.17.03.26.02.16.03.32.1.43.11.19.36.29.77.33.67.06,1.51.01,2.28-.04.5-.04,1.02-.07,1.53-.07Z"/><path class="cls-1" d="m67.97,38.64h-.11c-.95-.02-1.88-.19-2.78-.49l-.07-.02-.02-.07c-.16-.42.07-.87.36-1.12.3-.26.68-.38,1.01-.49.43-.14.87-.28,1.33-.3h.07c.58,0,1.19.21,1.71.58.38.27.63.73.39,1.08-.28.53-.94.83-1.9.83Zm-2.72-.75c.84.27,1.72.42,2.62.45h.1c.59,0,1.35-.12,1.65-.68.15-.22-.1-.52-.31-.68-.48-.34-1.02-.53-1.54-.53h-.06c-.42.01-.84.15-1.25.28-.32.11-.66.22-.91.43-.19.17-.36.46-.3.73Z"/><path class="cls-1" d="m91.68,146.93c-.74,0-1.65-.09-2.09-.78-.15-.23-.23-.51-.24-.84-.03-.62.22-1.26.69-1.75.47-.49,1.1-.78,1.72-.78.93,0,1.87.55,2.61,1.5.11.15.23.31.3.5.26.7-.22,1.47-.83,1.8-.62.33-1.33.35-1.97.36h-.19Zm.09-3.85c-.56,0-1.1.25-1.52.68-.41.43-.64.99-.61,1.53.01.27.08.51.2.69.37.57,1.18.64,1.84.64h.18c.6-.01,1.28-.02,1.83-.32.49-.27.9-.89.69-1.43-.06-.15-.16-.29-.25-.42-.68-.87-1.54-1.38-2.36-1.38h0Z"/></g></svg>